# xmcd
#
# Track frame offsets:
#	150
#	13297
#	28672
#	50072
#	64585
#	79597
#	90320
#	105627
#	122145
#	134400
#	147035
#	160297
#	172357
#	180625
#	196007
#	206275
#	214285
#
# Disc length: 3013 seconds
#
# Revision: 0
# Processed by: cddbd v1.5.1PL0 Copyright (c) Steve Scherf et al.
# Submitted via: audiograbber 1.83.01
#
DISCID=f00bc311
DTITLE=Various Artist - Country Instrumental Gold
DYEAR=1998
DGENRE=Country
TTITLE0=J. South - Rose Garden
TTITLE1=Willie Nelson - Crazy
TTITLE2=Tony Arata - The Dance
TTITLE3=Hank Williams - Jambalaya
TTITLE4=Merle Haggard - Hungry Eyes
TTITLE5=Johnny Martin Sommers - Thank God I'm A Country Boy
TTITLE6=S. Longacre and R. Giles - Is There Life Out There
TTITLE7=David West - Amazing Grace
TTITLE8=Merle Haggard - If We Make It Through December
TTITLE9=M. Christian - Lonesome Road Blues
TTITLE10=M. Thornton - Star Spangled Banner
TTITLE11=T. Wynette and B. Sherrill - Stand By Your Man
TTITLE12=Joe Maphis - Carter Country
TTITLE13=K. Carnes and D.T. Weiss - The Heart Won't Lie
TTITLE14=Otis Blackwell and Elvis Presley - Don't Be Cruel
TTITLE15=M. Christian - Beautiful Dreamer
TTITLE16=Vic Muzzy - Green Acres Theme
EXTD=
EXTT0=
EXTT1=
EXTT2=
EXTT3=
EXTT4=
EXTT5=
EXTT6=
EXTT7=
EXTT8=
EXTT9=
EXTT10=
EXTT11=
EXTT12=
EXTT13=
EXTT14=
EXTT15=
EXTT16=
PLAYORDER=
